solid OBJECT
  facet normal 0.062708832721670771 0.99803186437041447 0
    outer loop
      vertex 0.45706524914426527 3.3708562124389507 0
      vertex -3.181444855723929 3.5994728825752516 0
      vertex -3.181444855723929 3.5994728825752516 1.5022435238463405
    endloop
  endfacet
  facet normal 0.062708832721670771 0.99803186437041447 0
    outer loop
      vertex 0.45706524914426527 3.3708562124389507 0
      vertex -3.181444855723929 3.5994728825752516 1.5022435238463405
      vertex 0.45706524914426527 3.3708562124389507 1.5022435238463405
    endloop
  endfacet
  facet normal -0.53589589982564401 0.84428406626565167 -0
    outer loop
      vertex -3.181444855723929 3.5994728825752516 0
      vertex -6.259438871901601 1.6457650739542657 0
      vertex -6.259438871901601 1.6457650739542657 1.5022435238463405
    endloop
  endfacet
  facet normal -0.53589589982564401 0.84428406626565167 0
    outer loop
      vertex -3.181444855723929 3.5994728825752516 0
      vertex -6.259438871901601 1.6457650739542657 1.5022435238463405
      vertex -3.181444855723929 3.5994728825752516 1.5022435238463405
    endloop
  endfacet
  facet normal -0.92980661307127144 0.36804845100737854 0
    outer loop
      vertex -6.259438871901601 1.6457650739542657 0
      vertex -7.601227702377674 -1.7440172346168634 0
      vertex -7.601227702377674 -1.7440172346168634 1.5022435238463405
    endloop
  endfacet
  facet normal -0.92980661307127144 0.36804845100737854 0
    outer loop
      vertex -6.259438871901601 1.6457650739542657 0
      vertex -7.601227702377674 -1.7440172346168634 1.5022435238463405
      vertex -6.259438871901601 1.6457650739542657 1.5022435238463405
    endloop
  endfacet
  facet normal -0.96856280308809584 -0.24876916302896285 -0
    outer loop
      vertex -7.601227702377674 -1.7440172346168634 0
      vertex -6.6942936196352587 -5.2750924157270509 0
      vertex -6.6942936196352587 -5.2750924157270509 1.5022435238463405
    endloop
  endfacet
  facet normal -0.96856280308809584 -0.24876916302896285 -0
    outer loop
      vertex -7.601227702377674 -1.7440172346168634 0
      vertex -6.6942936196352587 -5.2750924157270509 1.5022435238463405
      vertex -7.601227702377674 -1.7440172346168634 1.5022435238463405
    endloop
  endfacet
  facet normal -0.6373609225641389 -0.77056541214110419 -0
    outer loop
      vertex -6.6942936196352587 -5.2750924157270509 0
      vertex -3.8850546177262482 -7.5987097670233945 0
      vertex -3.8850546177262482 -7.5987097670233945 1.5022435238463405
    endloop
  endfacet
  facet normal -0.6373609225641389 -0.77056541214110419 -0
    outer loop
      vertex -6.6942936196352587 -5.2750924157270509 0
      vertex -3.8850546177262482 -7.5987097670233945 1.5022435238463405
      vertex -6.6942936196352587 -5.2750924157270509 1.5022435238463405
    endloop
  endfacet
  facet normal -0.062708832721670757 -0.99803186437041447 -0
    outer loop
      vertex -3.8850546177262482 -7.5987097670233945 0
      vertex -0.24654451285805346 -7.8273264371596953 0
      vertex -0.24654451285805346 -7.8273264371596953 1.5022435238463405
    endloop
  endfacet
  facet normal -0.062708832721670757 -0.99803186437041447 -0
    outer loop
      vertex -3.8850546177262482 -7.5987097670233945 0
      vertex -0.24654451285805346 -7.8273264371596953 1.5022435238463405
      vertex -3.8850546177262482 -7.5987097670233945 1.5022435238463405
    endloop
  endfacet
  facet normal 0.5358958998256439 -0.84428406626565189 0
    outer loop
      vertex -0.24654451285805346 -7.8273264371596953 0
      vertex 2.8314495033196185 -5.8736186285387104 0
      vertex 2.8314495033196185 -5.8736186285387104 1.5022435238463405
    endloop
  endfacet
  facet normal 0.5358958998256439 -0.84428406626565189 -0
    outer loop
      vertex -0.24654451285805346 -7.8273264371596953 0
      vertex 2.8314495033196185 -5.8736186285387104 1.5022435238463405
      vertex -0.24654451285805346 -7.8273264371596953 1.5022435238463405
    endloop
  endfacet
  facet normal 0.92980661307127155 -0.36804845100737843 0
    outer loop
      vertex 2.8314495033196185 -5.8736186285387104 0
      vertex 4.1732383337956911 -2.483836319967581 0
      vertex 4.1732383337956911 -2.483836319967581 1.5022435238463405
    endloop
  endfacet
  facet normal 0.92980661307127155 -0.36804845100737843 0
    outer loop
      vertex 2.8314495033196185 -5.8736186285387104 0
      vertex 4.1732383337956911 -2.483836319967581 1.5022435238463405
      vertex 2.8314495033196185 -5.8736186285387104 1.5022435238463405
    endloop
  endfacet
  facet normal 0.96856280308809584 0.24876916302896246 0
    outer loop
      vertex 4.1732383337956911 -2.483836319967581 0
      vertex 3.2663042510532772 1.0472388611426071 0
      vertex 3.2663042510532772 1.0472388611426071 1.5022435238463405
    endloop
  endfacet
  facet normal 0.96856280308809584 0.24876916302896246 0
    outer loop
      vertex 4.1732383337956911 -2.483836319967581 0
      vertex 3.2663042510532772 1.0472388611426071 1.5022435238463405
      vertex 4.1732383337956911 -2.483836319967581 1.5022435238463405
    endloop
  endfacet
  facet normal 0.63736092256413879 0.7705654121411043 -0
    outer loop
      vertex 3.2663042510532772 1.0472388611426071 0
      vertex 0.45706524914426527 3.3708562124389507 0
      vertex 0.45706524914426527 3.3708562124389507 1.5022435238463405
    endloop
  endfacet
  facet normal 0.63736092256413879 0.7705654121411043 0
    outer loop
      vertex 3.2663042510532772 1.0472388611426071 0
      vertex 0.45706524914426527 3.3708562124389507 1.5022435238463405
      vertex 3.2663042510532772 1.0472388611426071 1.5022435238463405
    endloop
  endfacet
  facet normal 0.062708832721670771 0.99803186437041447 0
    outer loop
      vertex 0.45706524914426527 3.3708562124389507 1.5022435238463405
      vertex -3.181444855723929 3.5994728825752516 1.5022435238463405
      vertex -3.181444855723929 3.5994728825752516 3.004487047692681
    endloop
  endfacet
  facet normal 0.062708832721670771 0.99803186437041447 0
    outer loop
      vertex 0.45706524914426527 3.3708562124389507 1.5022435238463405
      vertex -3.181444855723929 3.5994728825752516 3.004487047692681
      vertex 0.45706524914426527 3.3708562124389507 3.004487047692681
    endloop
  endfacet
  facet normal -0.53589589982564401 0.84428406626565167 -0
    outer loop
      vertex -3.181444855723929 3.5994728825752516 1.5022435238463405
      vertex -6.259438871901601 1.6457650739542657 1.5022435238463405
      vertex -6.259438871901601 1.6457650739542657 3.004487047692681
    endloop
  endfacet
  facet normal -0.53589589982564401 0.84428406626565167 0
    outer loop
      vertex -3.181444855723929 3.5994728825752516 1.5022435238463405
      vertex -6.259438871901601 1.6457650739542657 3.004487047692681
      vertex -3.181444855723929 3.5994728825752516 3.004487047692681
    endloop
  endfacet
  facet normal -0.92980661307127144 0.36804845100737854 0
    outer loop
      vertex -6.259438871901601 1.6457650739542657 1.5022435238463405
      vertex -7.601227702377674 -1.7440172346168634 1.5022435238463405
      vertex -7.601227702377674 -1.7440172346168634 3.004487047692681
    endloop
  endfacet
  facet normal -0.92980661307127144 0.36804845100737854 0
    outer loop
      vertex -6.259438871901601 1.6457650739542657 1.5022435238463405
      vertex -7.601227702377674 -1.7440172346168634 3.004487047692681
      vertex -6.259438871901601 1.6457650739542657 3.004487047692681
    endloop
  endfacet
  facet normal -0.96856280308809584 -0.24876916302896285 -0
    outer loop
      vertex -7.601227702377674 -1.7440172346168634 1.5022435238463405
      vertex -6.6942936196352587 -5.2750924157270509 1.5022435238463405
      vertex -6.6942936196352587 -5.2750924157270509 3.004487047692681
    endloop
  endfacet
  facet normal -0.96856280308809584 -0.24876916302896285 -0
    outer loop
      vertex -7.601227702377674 -1.7440172346168634 1.5022435238463405
      vertex -6.6942936196352587 -5.2750924157270509 3.004487047692681
      vertex -7.601227702377674 -1.7440172346168634 3.004487047692681
    endloop
  endfacet
  facet normal -0.6373609225641389 -0.77056541214110419 -0
    outer loop
      vertex -6.6942936196352587 -5.2750924157270509 1.5022435238463405
      vertex -3.8850546177262482 -7.5987097670233945 1.5022435238463405
      vertex -3.8850546177262482 -7.5987097670233945 3.004487047692681
    endloop
  endfacet
  facet normal -0.6373609225641389 -0.77056541214110419 -0
    outer loop
      vertex -6.6942936196352587 -5.2750924157270509 1.5022435238463405
      vertex -3.8850546177262482 -7.5987097670233945 3.004487047692681
      vertex -6.6942936196352587 -5.2750924157270509 3.004487047692681
    endloop
  endfacet
  facet normal -0.062708832721670757 -0.99803186437041447 -0
    outer loop
      vertex -3.8850546177262482 -7.5987097670233945 1.5022435238463405
      vertex -0.24654451285805346 -7.8273264371596953 1.5022435238463405
      vertex -0.24654451285805346 -7.8273264371596953 3.004487047692681
    endloop
  endfacet
  facet normal -0.062708832721670757 -0.99803186437041447 -0
    outer loop
      vertex -3.8850546177262482 -7.5987097670233945 1.5022435238463405
      vertex -0.24654451285805346 -7.8273264371596953 3.004487047692681
      vertex -3.8850546177262482 -7.5987097670233945 3.004487047692681
    endloop
  endfacet
  facet normal 0.5358958998256439 -0.84428406626565189 0
    outer loop
      vertex -0.24654451285805346 -7.8273264371596953 1.5022435238463405
      vertex 2.8314495033196185 -5.8736186285387104 1.5022435238463405
      vertex 2.8314495033196185 -5.8736186285387104 3.004487047692681
    endloop
  endfacet
  facet normal 0.5358958998256439 -0.84428406626565189 -0
    outer loop
      vertex -0.24654451285805346 -7.8273264371596953 1.5022435238463405
      vertex 2.8314495033196185 -5.8736186285387104 3.004487047692681
      vertex -0.24654451285805346 -7.8273264371596953 3.004487047692681
    endloop
  endfacet
  facet normal 0.92980661307127155 -0.36804845100737843 0
    outer loop
      vertex 2.8314495033196185 -5.8736186285387104 1.5022435238463405
      vertex 4.1732383337956911 -2.483836319967581 1.5022435238463405
      vertex 4.1732383337956911 -2.483836319967581 3.004487047692681
    endloop
  endfacet
  facet normal 0.92980661307127155 -0.36804845100737843 0
    outer loop
      vertex 2.8314495033196185 -5.8736186285387104 1.5022435238463405
      vertex 4.1732383337956911 -2.483836319967581 3.004487047692681
      vertex 2.8314495033196185 -5.8736186285387104 3.004487047692681
    endloop
  endfacet
  facet normal 0.96856280308809584 0.24876916302896246 0
    outer loop
      vertex 4.1732383337956911 -2.483836319967581 1.5022435238463405
      vertex 3.2663042510532772 1.0472388611426071 1.5022435238463405
      vertex 3.2663042510532772 1.0472388611426071 3.004487047692681
    endloop
  endfacet
  facet normal 0.96856280308809584 0.24876916302896246 0
    outer loop
      vertex 4.1732383337956911 -2.483836319967581 1.5022435238463405
      vertex 3.2663042510532772 1.0472388611426071 3.004487047692681
      vertex 4.1732383337956911 -2.483836319967581 3.004487047692681
    endloop
  endfacet
  facet normal 0.63736092256413879 0.7705654121411043 -0
    outer loop
      vertex 3.2663042510532772 1.0472388611426071 1.5022435238463405
      vertex 0.45706524914426527 3.3708562124389507 1.5022435238463405
      vertex 0.45706524914426527 3.3708562124389507 3.004487047692681
    endloop
  endfacet
  facet normal 0.63736092256413879 0.7705654121411043 0
    outer loop
      vertex 3.2663042510532772 1.0472388611426071 1.5022435238463405
      vertex 0.45706524914426527 3.3708562124389507 3.004487047692681
      vertex 3.2663042510532772 1.0472388611426071 3.004487047692681
    endloop
  endfacet
  facet normal 0.062708832721670771 0.99803186437041447 0
    outer loop
      vertex 0.45706524914426527 3.3708562124389507 3.004487047692681
      vertex -3.181444855723929 3.5994728825752516 3.004487047692681
      vertex -3.181444855723929 3.5994728825752516 4.5067305715390216
    endloop
  endfacet
  facet normal 0.062708832721670771 0.99803186437041447 0
    outer loop
      vertex 0.45706524914426527 3.3708562124389507 3.004487047692681
      vertex -3.181444855723929 3.5994728825752516 4.5067305715390216
      vertex 0.45706524914426527 3.3708562124389507 4.5067305715390216
    endloop
  endfacet
  facet normal -0.53589589982564401 0.84428406626565167 -0
    outer loop
      vertex -3.181444855723929 3.5994728825752516 3.004487047692681
      vertex -6.259438871901601 1.6457650739542657 3.004487047692681
      vertex -6.259438871901601 1.6457650739542657 4.5067305715390216
    endloop
  endfacet
  facet normal -0.53589589982564401 0.84428406626565167 0
    outer loop
      vertex -3.181444855723929 3.5994728825752516 3.004487047692681
      vertex -6.259438871901601 1.6457650739542657 4.5067305715390216
      vertex -3.181444855723929 3.5994728825752516 4.5067305715390216
    endloop
  endfacet
  facet normal -0.92980661307127144 0.36804845100737854 0
    outer loop
      vertex -6.259438871901601 1.6457650739542657 3.004487047692681
      vertex -7.601227702377674 -1.7440172346168634 3.004487047692681
      vertex -7.601227702377674 -1.7440172346168634 4.5067305715390216
    endloop
  endfacet
  facet normal -0.92980661307127144 0.36804845100737854 0
    outer loop
      vertex -6.259438871901601 1.6457650739542657 3.004487047692681
      vertex -7.601227702377674 -1.7440172346168634 4.5067305715390216
      vertex -6.259438871901601 1.6457650739542657 4.5067305715390216
    endloop
  endfacet
  facet normal -0.96856280308809584 -0.24876916302896285 -0
    outer loop
      vertex -7.601227702377674 -1.7440172346168634 3.004487047692681
      vertex -6.6942936196352587 -5.2750924157270509 3.004487047692681
      vertex -6.6942936196352587 -5.2750924157270509 4.5067305715390216
    endloop
  endfacet
  facet normal -0.96856280308809584 -0.24876916302896285 -0
    outer loop
      vertex -7.601227702377674 -1.7440172346168634 3.004487047692681
      vertex -6.6942936196352587 -5.2750924157270509 4.5067305715390216
      vertex -7.601227702377674 -1.7440172346168634 4.5067305715390216
    endloop
  endfacet
  facet normal -0.6373609225641389 -0.77056541214110419 -0
    outer loop
      vertex -6.6942936196352587 -5.2750924157270509 3.004487047692681
      vertex -3.8850546177262482 -7.5987097670233945 3.004487047692681
      vertex -3.8850546177262482 -7.5987097670233945 4.5067305715390216
    endloop
  endfacet
  facet normal -0.6373609225641389 -0.77056541214110419 -0
    outer loop
      vertex -6.6942936196352587 -5.2750924157270509 3.004487047692681
      vertex -3.8850546177262482 -7.5987097670233945 4.5067305715390216
      vertex -6.6942936196352587 -5.2750924157270509 4.5067305715390216
    endloop
  endfacet
  facet normal -0.062708832721670757 -0.99803186437041447 -0
    outer loop
      vertex -3.8850546177262482 -7.5987097670233945 3.004487047692681
      vertex -0.24654451285805346 -7.8273264371596953 3.004487047692681
      vertex -0.24654451285805346 -7.8273264371596953 4.5067305715390216
    endloop
  endfacet
  facet normal -0.062708832721670757 -0.99803186437041447 -0
    outer loop
      vertex -3.8850546177262482 -7.5987097670233945 3.004487047692681
      vertex -0.24654451285805346 -7.8273264371596953 4.5067305715390216
      vertex -3.8850546177262482 -7.5987097670233945 4.5067305715390216
    endloop
  endfacet
  facet normal 0.5358958998256439 -0.84428406626565189 0
    outer loop
      vertex -0.24654451285805346 -7.8273264371596953 3.004487047692681
      vertex 2.8314495033196185 -5.8736186285387104 3.004487047692681
      vertex 2.8314495033196185 -5.8736186285387104 4.5067305715390216
    endloop
  endfacet
  facet normal 0.5358958998256439 -0.84428406626565189 -0
    outer loop
      vertex -0.24654451285805346 -7.8273264371596953 3.004487047692681
      vertex 2.8314495033196185 -5.8736186285387104 4.5067305715390216
      vertex -0.24654451285805346 -7.8273264371596953 4.5067305715390216
    endloop
  endfacet
  facet normal 0.92980661307127155 -0.36804845100737843 0
    outer loop
      vertex 2.8314495033196185 -5.8736186285387104 3.004487047692681
      vertex 4.1732383337956911 -2.483836319967581 3.004487047692681
      vertex 4.1732383337956911 -2.483836319967581 4.5067305715390216
    endloop
  endfacet
  facet normal 0.92980661307127155 -0.36804845100737843 0
    outer loop
      vertex 2.8314495033196185 -5.8736186285387104 3.004487047692681
      vertex 4.1732383337956911 -2.483836319967581 4.5067305715390216
      vertex 2.8314495033196185 -5.8736186285387104 4.5067305715390216
    endloop
  endfacet
  facet normal 0.96856280308809584 0.24876916302896246 0
    outer loop
      vertex 4.1732383337956911 -2.483836319967581 3.004487047692681
      vertex 3.2663042510532772 1.0472388611426071 3.004487047692681
      vertex 3.2663042510532772 1.0472388611426071 4.5067305715390216
    endloop
  endfacet
  facet normal 0.96856280308809584 0.24876916302896246 0
    outer loop
      vertex 4.1732383337956911 -2.483836319967581 3.004487047692681
      vertex 3.2663042510532772 1.0472388611426071 4.5067305715390216
      vertex 4.1732383337956911 -2.483836319967581 4.5067305715390216
    endloop
  endfacet
  facet normal 0.63736092256413879 0.7705654121411043 -0
    outer loop
      vertex 3.2663042510532772 1.0472388611426071 3.004487047692681
      vertex 0.45706524914426527 3.3708562124389507 3.004487047692681
      vertex 0.45706524914426527 3.3708562124389507 4.5067305715390216
    endloop
  endfacet
  facet normal 0.63736092256413879 0.7705654121411043 0
    outer loop
      vertex 3.2663042510532772 1.0472388611426071 3.004487047692681
      vertex 0.45706524914426527 3.3708562124389507 4.5067305715390216
      vertex 3.2663042510532772 1.0472388611426071 4.5067305715390216
    endloop
  endfacet
  facet normal 0.062708832721670771 0.99803186437041447 0
    outer loop
      vertex 0.45706524914426527 3.3708562124389507 4.5067305715390216
      vertex -3.181444855723929 3.5994728825752516 4.5067305715390216
      vertex -3.181444855723929 3.5994728825752516 6.0089740953853621
    endloop
  endfacet
  facet normal 0.062708832721670771 0.99803186437041447 0
    outer loop
      vertex 0.45706524914426527 3.3708562124389507 4.5067305715390216
      vertex -3.181444855723929 3.5994728825752516 6.0089740953853621
      vertex 0.45706524914426527 3.3708562124389507 6.0089740953853621
    endloop
  endfacet
  facet normal -0.53589589982564401 0.84428406626565167 -0
    outer loop
      vertex -3.181444855723929 3.5994728825752516 4.5067305715390216
      vertex -6.259438871901601 1.6457650739542657 4.5067305715390216
      vertex -6.259438871901601 1.6457650739542657 6.0089740953853621
    endloop
  endfacet
  facet normal -0.53589589982564401 0.84428406626565167 0
    outer loop
      vertex -3.181444855723929 3.5994728825752516 4.5067305715390216
      vertex -6.259438871901601 1.6457650739542657 6.0089740953853621
      vertex -3.181444855723929 3.5994728825752516 6.0089740953853621
    endloop
  endfacet
  facet normal -0.92980661307127144 0.36804845100737854 0
    outer loop
      vertex -6.259438871901601 1.6457650739542657 4.5067305715390216
      vertex -7.601227702377674 -1.7440172346168634 4.5067305715390216
      vertex -7.601227702377674 -1.7440172346168634 6.0089740953853621
    endloop
  endfacet
  facet normal -0.92980661307127144 0.36804845100737854 0
    outer loop
      vertex -6.259438871901601 1.6457650739542657 4.5067305715390216
      vertex -7.601227702377674 -1.7440172346168634 6.0089740953853621
      vertex -6.259438871901601 1.6457650739542657 6.0089740953853621
    endloop
  endfacet
  facet normal -0.96856280308809584 -0.24876916302896285 -0
    outer loop
      vertex -7.601227702377674 -1.7440172346168634 4.5067305715390216
      vertex -6.6942936196352587 -5.2750924157270509 4.5067305715390216
      vertex -6.6942936196352587 -5.2750924157270509 6.0089740953853621
    endloop
  endfacet
  facet normal -0.96856280308809584 -0.24876916302896285 -0
    outer loop
      vertex -7.601227702377674 -1.7440172346168634 4.5067305715390216
      vertex -6.6942936196352587 -5.2750924157270509 6.0089740953853621
      vertex -7.601227702377674 -1.7440172346168634 6.0089740953853621
    endloop
  endfacet
  facet normal -0.6373609225641389 -0.77056541214110419 -0
    outer loop
      vertex -6.6942936196352587 -5.2750924157270509 4.5067305715390216
      vertex -3.8850546177262482 -7.5987097670233945 4.5067305715390216
      vertex -3.8850546177262482 -7.5987097670233945 6.0089740953853621
    endloop
  endfacet
  facet normal -0.6373609225641389 -0.77056541214110419 -0
    outer loop
      vertex -6.6942936196352587 -5.2750924157270509 4.5067305715390216
      vertex -3.8850546177262482 -7.5987097670233945 6.0089740953853621
      vertex -6.6942936196352587 -5.2750924157270509 6.0089740953853621
    endloop
  endfacet
  facet normal -0.062708832721670757 -0.99803186437041447 -0
    outer loop
      vertex -3.8850546177262482 -7.5987097670233945 4.5067305715390216
      vertex -0.24654451285805346 -7.8273264371596953 4.5067305715390216
      vertex -0.24654451285805346 -7.8273264371596953 6.0089740953853621
    endloop
  endfacet
  facet normal -0.062708832721670757 -0.99803186437041447 -0
    outer loop
      vertex -3.8850546177262482 -7.5987097670233945 4.5067305715390216
      vertex -0.24654451285805346 -7.8273264371596953 6.0089740953853621
      vertex -3.8850546177262482 -7.5987097670233945 6.0089740953853621
    endloop
  endfacet
  facet normal 0.5358958998256439 -0.84428406626565189 0
    outer loop
      vertex -0.24654451285805346 -7.8273264371596953 4.5067305715390216
      vertex 2.8314495033196185 -5.8736186285387104 4.5067305715390216
      vertex 2.8314495033196185 -5.8736186285387104 6.0089740953853621
    endloop
  endfacet
  facet normal 0.5358958998256439 -0.84428406626565189 -0
    outer loop
      vertex -0.24654451285805346 -7.8273264371596953 4.5067305715390216
      vertex 2.8314495033196185 -5.8736186285387104 6.0089740953853621
      vertex -0.24654451285805346 -7.8273264371596953 6.0089740953853621
    endloop
  endfacet
  facet normal 0.92980661307127155 -0.36804845100737843 0
    outer loop
      vertex 2.8314495033196185 -5.8736186285387104 4.5067305715390216
      vertex 4.1732383337956911 -2.483836319967581 4.5067305715390216
      vertex 4.1732383337956911 -2.483836319967581 6.0089740953853621
    endloop
  endfacet
  facet normal 0.92980661307127155 -0.36804845100737843 0
    outer loop
      vertex 2.8314495033196185 -5.8736186285387104 4.5067305715390216
      vertex 4.1732383337956911 -2.483836319967581 6.0089740953853621
      vertex 2.8314495033196185 -5.8736186285387104 6.0089740953853621
    endloop
  endfacet
  facet normal 0.96856280308809584 0.24876916302896246 0
    outer loop
      vertex 4.1732383337956911 -2.483836319967581 4.5067305715390216
      vertex 3.2663042510532772 1.0472388611426071 4.5067305715390216
      vertex 3.2663042510532772 1.0472388611426071 6.0089740953853621
    endloop
  endfacet
  facet normal 0.96856280308809584 0.24876916302896246 0
    outer loop
      vertex 4.1732383337956911 -2.483836319967581 4.5067305715390216
      vertex 3.2663042510532772 1.0472388611426071 6.0089740953853621
      vertex 4.1732383337956911 -2.483836319967581 6.0089740953853621
    endloop
  endfacet
  facet normal 0.63736092256413879 0.7705654121411043 -0
    outer loop
      vertex 3.2663042510532772 1.0472388611426071 4.5067305715390216
      vertex 0.45706524914426527 3.3708562124389507 4.5067305715390216
      vertex 0.45706524914426527 3.3708562124389507 6.0089740953853621
    endloop
  endfacet
  facet normal 0.63736092256413879 0.7705654121411043 0
    outer loop
      vertex 3.2663042510532772 1.0472388611426071 4.5067305715390216
      vertex 0.45706524914426527 3.3708562124389507 6.0089740953853621
      vertex 3.2663042510532772 1.0472388611426071 6.0089740953853621
    endloop
  endfacet
  facet normal 0.062708832721670771 0.99803186437041447 0
    outer loop
      vertex 0.45706524914426527 3.3708562124389507 6.0089740953853621
      vertex -3.181444855723929 3.5994728825752516 6.0089740953853621
      vertex -3.181444855723929 3.5994728825752516 7.5112176192317026
    endloop
  endfacet
  facet normal 0.062708832721670771 0.99803186437041447 0
    outer loop
      vertex 0.45706524914426527 3.3708562124389507 6.0089740953853621
      vertex -3.181444855723929 3.5994728825752516 7.5112176192317026
      vertex 0.45706524914426527 3.3708562124389507 7.5112176192317026
    endloop
  endfacet
  facet normal -0.53589589982564401 0.84428406626565167 -0
    outer loop
      vertex -3.181444855723929 3.5994728825752516 6.0089740953853621
      vertex -6.259438871901601 1.6457650739542657 6.0089740953853621
      vertex -6.259438871901601 1.6457650739542657 7.5112176192317026
    endloop
  endfacet
  facet normal -0.53589589982564401 0.84428406626565167 0
    outer loop
      vertex -3.181444855723929 3.5994728825752516 6.0089740953853621
      vertex -6.259438871901601 1.6457650739542657 7.5112176192317026
      vertex -3.181444855723929 3.5994728825752516 7.5112176192317026
    endloop
  endfacet
  facet normal -0.92980661307127144 0.36804845100737854 0
    outer loop
      vertex -6.259438871901601 1.6457650739542657 6.0089740953853621
      vertex -7.601227702377674 -1.7440172346168634 6.0089740953853621
      vertex -7.601227702377674 -1.7440172346168634 7.5112176192317026
    endloop
  endfacet
  facet normal -0.92980661307127144 0.36804845100737854 0
    outer loop
      vertex -6.259438871901601 1.6457650739542657 6.0089740953853621
      vertex -7.601227702377674 -1.7440172346168634 7.5112176192317026
      vertex -6.259438871901601 1.6457650739542657 7.5112176192317026
    endloop
  endfacet
  facet normal -0.96856280308809584 -0.24876916302896285 -0
    outer loop
      vertex -7.601227702377674 -1.7440172346168634 6.0089740953853621
      vertex -6.6942936196352587 -5.2750924157270509 6.0089740953853621
      vertex -6.6942936196352587 -5.2750924157270509 7.5112176192317026
    endloop
  endfacet
  facet normal -0.96856280308809584 -0.24876916302896285 -0
    outer loop
      vertex -7.601227702377674 -1.7440172346168634 6.0089740953853621
      vertex -6.6942936196352587 -5.2750924157270509 7.5112176192317026
      vertex -7.601227702377674 -1.7440172346168634 7.5112176192317026
    endloop
  endfacet
  facet normal -0.6373609225641389 -0.77056541214110419 -0
    outer loop
      vertex -6.6942936196352587 -5.2750924157270509 6.0089740953853621
      vertex -3.8850546177262482 -7.5987097670233945 6.0089740953853621
      vertex -3.8850546177262482 -7.5987097670233945 7.5112176192317026
    endloop
  endfacet
  facet normal -0.6373609225641389 -0.77056541214110419 -0
    outer loop
      vertex -6.6942936196352587 -5.2750924157270509 6.0089740953853621
      vertex -3.8850546177262482 -7.5987097670233945 7.5112176192317026
      vertex -6.6942936196352587 -5.2750924157270509 7.5112176192317026
    endloop
  endfacet
  facet normal -0.062708832721670757 -0.99803186437041447 -0
    outer loop
      vertex -3.8850546177262482 -7.5987097670233945 6.0089740953853621
      vertex -0.24654451285805346 -7.8273264371596953 6.0089740953853621
      vertex -0.24654451285805346 -7.8273264371596953 7.5112176192317026
    endloop
  endfacet
  facet normal -0.062708832721670757 -0.99803186437041447 -0
    outer loop
      vertex -3.8850546177262482 -7.5987097670233945 6.0089740953853621
      vertex -0.24654451285805346 -7.8273264371596953 7.5112176192317026
      vertex -3.8850546177262482 -7.5987097670233945 7.5112176192317026
    endloop
  endfacet
  facet normal 0.5358958998256439 -0.84428406626565189 0
    outer loop
      vertex -0.24654451285805346 -7.8273264371596953 6.0089740953853621
      vertex 2.8314495033196185 -5.8736186285387104 6.0089740953853621
      vertex 2.8314495033196185 -5.8736186285387104 7.5112176192317026
    endloop
  endfacet
  facet normal 0.5358958998256439 -0.84428406626565189 -0
    outer loop
      vertex -0.24654451285805346 -7.8273264371596953 6.0089740953853621
      vertex 2.8314495033196185 -5.8736186285387104 7.5112176192317026
      vertex -0.24654451285805346 -7.8273264371596953 7.5112176192317026
    endloop
  endfacet
  facet normal 0.92980661307127155 -0.36804845100737843 0
    outer loop
      vertex 2.8314495033196185 -5.8736186285387104 6.0089740953853621
      vertex 4.1732383337956911 -2.483836319967581 6.0089740953853621
      vertex 4.1732383337956911 -2.483836319967581 7.5112176192317026
    endloop
  endfacet
  facet normal 0.92980661307127155 -0.36804845100737843 0
    outer loop
      vertex 2.8314495033196185 -5.8736186285387104 6.0089740953853621
      vertex 4.1732383337956911 -2.483836319967581 7.5112176192317026
      vertex 2.8314495033196185 -5.8736186285387104 7.5112176192317026
    endloop
  endfacet
  facet normal 0.96856280308809584 0.24876916302896246 0
    outer loop
      vertex 4.1732383337956911 -2.483836319967581 6.0089740953853621
      vertex 3.2663042510532772 1.0472388611426071 6.0089740953853621
      vertex 3.2663042510532772 1.0472388611426071 7.5112176192317026
    endloop
  endfacet
  facet normal 0.96856280308809584 0.24876916302896246 0
    outer loop
      vertex 4.1732383337956911 -2.483836319967581 6.0089740953853621
      vertex 3.2663042510532772 1.0472388611426071 7.5112176192317026
      vertex 4.1732383337956911 -2.483836319967581 7.5112176192317026
    endloop
  endfacet
  facet normal 0.63736092256413879 0.7705654121411043 -0
    outer loop
      vertex 3.2663042510532772 1.0472388611426071 6.0089740953853621
      vertex 0.45706524914426527 3.3708562124389507 6.0089740953853621
      vertex 0.45706524914426527 3.3708562124389507 7.5112176192317026
    endloop
  endfacet
  facet normal 0.63736092256413879 0.7705654121411043 0
    outer loop
      vertex 3.2663042510532772 1.0472388611426071 6.0089740953853621
      vertex 0.45706524914426527 3.3708562124389507 7.5112176192317026
      vertex 3.2663042510532772 1.0472388611426071 7.5112176192317026
    endloop
  endfacet
  facet normal 0.062708832721670771 0.99803186437041447 0
    outer loop
      vertex 0.45706524914426527 3.3708562124389507 7.5112176192317026
      vertex -3.181444855723929 3.5994728825752516 7.5112176192317026
      vertex -3.181444855723929 3.5994728825752516 9.0134611430780431
    endloop
  endfacet
  facet normal 0.062708832721670771 0.99803186437041447 0
    outer loop
      vertex 0.45706524914426527 3.3708562124389507 7.5112176192317026
      vertex -3.181444855723929 3.5994728825752516 9.0134611430780431
      vertex 0.45706524914426527 3.3708562124389507 9.0134611430780431
    endloop
  endfacet
  facet normal -0.53589589982564401 0.84428406626565167 -0
    outer loop
      vertex -3.181444855723929 3.5994728825752516 7.5112176192317026
      vertex -6.259438871901601 1.6457650739542657 7.5112176192317026
      vertex -6.259438871901601 1.6457650739542657 9.0134611430780431
    endloop
  endfacet
  facet normal -0.53589589982564401 0.84428406626565167 0
    outer loop
      vertex -3.181444855723929 3.5994728825752516 7.5112176192317026
      vertex -6.259438871901601 1.6457650739542657 9.0134611430780431
      vertex -3.181444855723929 3.5994728825752516 9.0134611430780431
    endloop
  endfacet
  facet normal -0.92980661307127144 0.36804845100737854 0
    outer loop
      vertex -6.259438871901601 1.6457650739542657 7.5112176192317026
      vertex -7.601227702377674 -1.7440172346168634 7.5112176192317026
      vertex -7.601227702377674 -1.7440172346168634 9.0134611430780431
    endloop
  endfacet
  facet normal -0.92980661307127144 0.36804845100737854 0
    outer loop
      vertex -6.259438871901601 1.6457650739542657 7.5112176192317026
      vertex -7.601227702377674 -1.7440172346168634 9.0134611430780431
      vertex -6.259438871901601 1.6457650739542657 9.0134611430780431
    endloop
  endfacet
  facet normal -0.96856280308809584 -0.24876916302896285 -0
    outer loop
      vertex -7.601227702377674 -1.7440172346168634 7.5112176192317026
      vertex -6.6942936196352587 -5.2750924157270509 7.5112176192317026
      vertex -6.6942936196352587 -5.2750924157270509 9.0134611430780431
    endloop
  endfacet
  facet normal -0.96856280308809584 -0.24876916302896285 -0
    outer loop
      vertex -7.601227702377674 -1.7440172346168634 7.5112176192317026
      vertex -6.6942936196352587 -5.2750924157270509 9.0134611430780431
      vertex -7.601227702377674 -1.7440172346168634 9.0134611430780431
    endloop
  endfacet
  facet normal -0.6373609225641389 -0.77056541214110419 -0
    outer loop
      vertex -6.6942936196352587 -5.2750924157270509 7.5112176192317026
      vertex -3.8850546177262482 -7.5987097670233945 7.5112176192317026
      vertex -3.8850546177262482 -7.5987097670233945 9.0134611430780431
    endloop
  endfacet
  facet normal -0.6373609225641389 -0.77056541214110419 -0
    outer loop
      vertex -6.6942936196352587 -5.2750924157270509 7.5112176192317026
      vertex -3.8850546177262482 -7.5987097670233945 9.0134611430780431
      vertex -6.6942936196352587 -5.2750924157270509 9.0134611430780431
    endloop
  endfacet
  facet normal -0.062708832721670757 -0.99803186437041447 -0
    outer loop
      vertex -3.8850546177262482 -7.5987097670233945 7.5112176192317026
      vertex -0.24654451285805346 -7.8273264371596953 7.5112176192317026
      vertex -0.24654451285805346 -7.8273264371596953 9.0134611430780431
    endloop
  endfacet
  facet normal -0.062708832721670757 -0.99803186437041447 -0
    outer loop
      vertex -3.8850546177262482 -7.5987097670233945 7.5112176192317026
      vertex -0.24654451285805346 -7.8273264371596953 9.0134611430780431
      vertex -3.8850546177262482 -7.5987097670233945 9.0134611430780431
    endloop
  endfacet
  facet normal 0.5358958998256439 -0.84428406626565189 0
    outer loop
      vertex -0.24654451285805346 -7.8273264371596953 7.5112176192317026
      vertex 2.8314495033196185 -5.8736186285387104 7.5112176192317026
      vertex 2.8314495033196185 -5.8736186285387104 9.0134611430780431
    endloop
  endfacet
  facet normal 0.5358958998256439 -0.84428406626565189 -0
    outer loop
      vertex -0.24654451285805346 -7.8273264371596953 7.5112176192317026
      vertex 2.8314495033196185 -5.8736186285387104 9.0134611430780431
      vertex -0.24654451285805346 -7.8273264371596953 9.0134611430780431
    endloop
  endfacet
  facet normal 0.92980661307127155 -0.36804845100737843 0
    outer loop
      vertex 2.8314495033196185 -5.8736186285387104 7.5112176192317026
      vertex 4.1732383337956911 -2.483836319967581 7.5112176192317026
      vertex 4.1732383337956911 -2.483836319967581 9.0134611430780431
    endloop
  endfacet
  facet normal 0.92980661307127155 -0.36804845100737843 0
    outer loop
      vertex 2.8314495033196185 -5.8736186285387104 7.5112176192317026
      vertex 4.1732383337956911 -2.483836319967581 9.0134611430780431
      vertex 2.8314495033196185 -5.8736186285387104 9.0134611430780431
    endloop
  endfacet
  facet normal 0.96856280308809584 0.24876916302896246 0
    outer loop
      vertex 4.1732383337956911 -2.483836319967581 7.5112176192317026
      vertex 3.2663042510532772 1.0472388611426071 7.5112176192317026
      vertex 3.2663042510532772 1.0472388611426071 9.0134611430780431
    endloop
  endfacet
  facet normal 0.96856280308809584 0.24876916302896246 0
    outer loop
      vertex 4.1732383337956911 -2.483836319967581 7.5112176192317026
      vertex 3.2663042510532772 1.0472388611426071 9.0134611430780431
      vertex 4.1732383337956911 -2.483836319967581 9.0134611430780431
    endloop
  endfacet
  facet normal 0.63736092256413879 0.7705654121411043 -0
    outer loop
      vertex 3.2663042510532772 1.0472388611426071 7.5112176192317026
      vertex 0.45706524914426527 3.3708562124389507 7.5112176192317026
      vertex 0.45706524914426527 3.3708562124389507 9.0134611430780431
    endloop
  endfacet
  facet normal 0.63736092256413879 0.7705654121411043 0
    outer loop
      vertex 3.2663042510532772 1.0472388611426071 7.5112176192317026
      vertex 0.45706524914426527 3.3708562124389507 9.0134611430780431
      vertex 3.2663042510532772 1.0472388611426071 9.0134611430780431
    endloop
  endfacet
  facet normal 0.062708832721670771 0.99803186437041447 1.8439719285602065e-17
    outer loop
      vertex 0.45706524914426527 3.3708562124389507 9.0134611430780431
      vertex -3.181444855723929 3.5994728825752516 9.0134611430780431
      vertex -3.181444855723929 3.5994728825752516 10.515704666924382
    endloop
  endfacet
  facet normal 0.062708832721670771 0.99803186437041447 0
    outer loop
      vertex 0.45706524914426527 3.3708562124389507 9.0134611430780431
      vertex -3.181444855723929 3.5994728825752516 10.515704666924382
      vertex 0.45706524914426527 3.3708562124389507 10.515704666924382
    endloop
  endfacet
  facet normal -0.53589589982564412 0.84428406626565178 0
    outer loop
      vertex -3.181444855723929 3.5994728825752516 9.0134611430780431
      vertex -6.259438871901601 1.6457650739542657 9.0134611430780431
      vertex -6.259438871901601 1.6457650739542657 10.515704666924382
    endloop
  endfacet
  facet normal -0.53589589982564412 0.84428406626565178 0
    outer loop
      vertex -3.181444855723929 3.5994728825752516 9.0134611430780431
      vertex -6.259438871901601 1.6457650739542657 10.515704666924382
      vertex -3.181444855723929 3.5994728825752516 10.515704666924382
    endloop
  endfacet
  facet normal -0.92980661307127144 0.3680484510073786 -0
    outer loop
      vertex -6.259438871901601 1.6457650739542657 9.0134611430780431
      vertex -7.601227702377674 -1.7440172346168634 9.0134611430780431
      vertex -7.601227702377674 -1.7440172346168634 10.515704666924382
    endloop
  endfacet
  facet normal -0.92980661307127144 0.3680484510073786 -0
    outer loop
      vertex -6.259438871901601 1.6457650739542657 9.0134611430780431
      vertex -7.601227702377674 -1.7440172346168634 10.515704666924382
      vertex -6.259438871901601 1.6457650739542657 10.515704666924382
    endloop
  endfacet
  facet normal -0.96856280308809584 -0.24876916302896285 -0
    outer loop
      vertex -7.601227702377674 -1.7440172346168634 9.0134611430780431
      vertex -6.6942936196352587 -5.2750924157270509 9.0134611430780431
      vertex -6.6942936196352587 -5.2750924157270509 10.515704666924382
    endloop
  endfacet
  facet normal -0.96856280308809584 -0.24876916302896285 -0
    outer loop
      vertex -7.601227702377674 -1.7440172346168634 9.0134611430780431
      vertex -6.6942936196352587 -5.2750924157270509 10.515704666924382
      vertex -7.601227702377674 -1.7440172346168634 10.515704666924382
    endloop
  endfacet
  facet normal -0.6373609225641389 -0.77056541214110419 -0
    outer loop
      vertex -6.6942936196352587 -5.2750924157270509 9.0134611430780431
      vertex -3.8850546177262482 -7.5987097670233945 9.0134611430780431
      vertex -3.8850546177262482 -7.5987097670233945 10.515704666924382
    endloop
  endfacet
  facet normal -0.6373609225641389 -0.77056541214110419 0
    outer loop
      vertex -6.6942936196352587 -5.2750924157270509 9.0134611430780431
      vertex -3.8850546177262482 -7.5987097670233945 10.515704666924382
      vertex -6.6942936196352587 -5.2750924157270509 10.515704666924382
    endloop
  endfacet
  facet normal -0.062708832721670757 -0.99803186437041447 -0
    outer loop
      vertex -3.8850546177262482 -7.5987097670233945 9.0134611430780431
      vertex -0.24654451285805346 -7.8273264371596953 9.0134611430780431
      vertex -0.24654451285805346 -7.8273264371596953 10.515704666924382
    endloop
  endfacet
  facet normal -0.062708832721670757 -0.99803186437041447 -0
    outer loop
      vertex -3.8850546177262482 -7.5987097670233945 9.0134611430780431
      vertex -0.24654451285805346 -7.8273264371596953 10.515704666924382
      vertex -3.8850546177262482 -7.5987097670233945 10.515704666924382
    endloop
  endfacet
  facet normal 0.5358958998256439 -0.84428406626565178 0
    outer loop
      vertex -0.24654451285805346 -7.8273264371596953 9.0134611430780431
      vertex 2.8314495033196185 -5.8736186285387104 9.0134611430780431
      vertex 2.8314495033196185 -5.8736186285387104 10.515704666924382
    endloop
  endfacet
  facet normal 0.5358958998256439 -0.84428406626565189 -0
    outer loop
      vertex -0.24654451285805346 -7.8273264371596953 9.0134611430780431
      vertex 2.8314495033196185 -5.8736186285387104 10.515704666924382
      vertex -0.24654451285805346 -7.8273264371596953 10.515704666924382
    endloop
  endfacet
  facet normal 0.92980661307127155 -0.36804845100737843 0
    outer loop
      vertex 2.8314495033196185 -5.8736186285387104 9.0134611430780431
      vertex 4.1732383337956911 -2.483836319967581 9.0134611430780431
      vertex 4.1732383337956911 -2.483836319967581 10.515704666924382
    endloop
  endfacet
  facet normal 0.92980661307127155 -0.36804845100737843 0
    outer loop
      vertex 2.8314495033196185 -5.8736186285387104 9.0134611430780431
      vertex 4.1732383337956911 -2.483836319967581 10.515704666924382
      vertex 2.8314495033196185 -5.8736186285387104 10.515704666924382
    endloop
  endfacet
  facet normal 0.96856280308809584 0.24876916302896243 0
    outer loop
      vertex 4.1732383337956911 -2.483836319967581 9.0134611430780431
      vertex 3.2663042510532772 1.0472388611426071 9.0134611430780431
      vertex 3.2663042510532772 1.0472388611426071 10.515704666924382
    endloop
  endfacet
  facet normal 0.96856280308809584 0.24876916302896243 0
    outer loop
      vertex 4.1732383337956911 -2.483836319967581 9.0134611430780431
      vertex 3.2663042510532772 1.0472388611426071 10.515704666924382
      vertex 4.1732383337956911 -2.483836319967581 10.515704666924382
    endloop
  endfacet
  facet normal 0.63736092256413879 0.7705654121411043 -0
    outer loop
      vertex 3.2663042510532772 1.0472388611426071 9.0134611430780431
      vertex 0.45706524914426527 3.3708562124389507 9.0134611430780431
      vertex 0.45706524914426527 3.3708562124389507 10.515704666924382
    endloop
  endfacet
  facet normal 0.63736092256413879 0.7705654121411043 0
    outer loop
      vertex 3.2663042510532772 1.0472388611426071 9.0134611430780431
      vertex 0.45706524914426527 3.3708562124389507 10.515704666924382
      vertex 3.2663042510532772 1.0472388611426071 10.515704666924382
    endloop
  endfacet
  facet normal 0.062708832721670771 0.99803186437041447 0
    outer loop
      vertex 0.45706524914426527 3.3708562124389507 10.515704666924382
      vertex -3.181444855723929 3.5994728825752516 10.515704666924382
      vertex -3.181444855723929 3.5994728825752516 12.017948190770724
    endloop
  endfacet
  facet normal 0.062708832721670771 0.99803186437041447 0
    outer loop
      vertex 0.45706524914426527 3.3708562124389507 10.515704666924382
      vertex -3.181444855723929 3.5994728825752516 12.017948190770724
      vertex 0.45706524914426527 3.3708562124389507 12.017948190770724
    endloop
  endfacet
  facet normal -0.53589589982564401 0.84428406626565167 -0
    outer loop
      vertex -3.181444855723929 3.5994728825752516 10.515704666924382
      vertex -6.259438871901601 1.6457650739542657 10.515704666924382
      vertex -6.259438871901601 1.6457650739542657 12.017948190770724
    endloop
  endfacet
  facet normal -0.53589589982564401 0.84428406626565167 0
    outer loop
      vertex -3.181444855723929 3.5994728825752516 10.515704666924382
      vertex -6.259438871901601 1.6457650739542657 12.017948190770724
      vertex -3.181444855723929 3.5994728825752516 12.017948190770724
    endloop
  endfacet
  facet normal -0.92980661307127144 0.3680484510073786 -0
    outer loop
      vertex -6.259438871901601 1.6457650739542657 10.515704666924382
      vertex -7.601227702377674 -1.7440172346168634 10.515704666924382
      vertex -7.601227702377674 -1.7440172346168634 12.017948190770724
    endloop
  endfacet
  facet normal -0.92980661307127144 0.3680484510073786 -0
    outer loop
      vertex -6.259438871901601 1.6457650739542657 10.515704666924382
      vertex -7.601227702377674 -1.7440172346168634 12.017948190770724
      vertex -6.259438871901601 1.6457650739542657 12.017948190770724
    endloop
  endfacet
  facet normal -0.96856280308809584 -0.24876916302896285 -0
    outer loop
      vertex -7.601227702377674 -1.7440172346168634 10.515704666924382
      vertex -6.6942936196352587 -5.2750924157270509 10.515704666924382
      vertex -6.6942936196352587 -5.2750924157270509 12.017948190770724
    endloop
  endfacet
  facet normal -0.96856280308809584 -0.24876916302896285 -0
    outer loop
      vertex -7.601227702377674 -1.7440172346168634 10.515704666924382
      vertex -6.6942936196352587 -5.2750924157270509 12.017948190770724
      vertex -7.601227702377674 -1.7440172346168634 12.017948190770724
    endloop
  endfacet
  facet normal -0.6373609225641389 -0.77056541214110419 -0
    outer loop
      vertex -6.6942936196352587 -5.2750924157270509 10.515704666924382
      vertex -3.8850546177262482 -7.5987097670233945 10.515704666924382
      vertex -3.8850546177262482 -7.5987097670233945 12.017948190770724
    endloop
  endfacet
  facet normal -0.6373609225641389 -0.77056541214110419 -0
    outer loop
      vertex -6.6942936196352587 -5.2750924157270509 10.515704666924382
      vertex -3.8850546177262482 -7.5987097670233945 12.017948190770724
      vertex -6.6942936196352587 -5.2750924157270509 12.017948190770724
    endloop
  endfacet
  facet normal -0.062708832721670757 -0.99803186437041447 -0
    outer loop
      vertex -3.8850546177262482 -7.5987097670233945 10.515704666924382
      vertex -0.24654451285805346 -7.8273264371596953 10.515704666924382
      vertex -0.24654451285805346 -7.8273264371596953 12.017948190770724
    endloop
  endfacet
  facet normal -0.062708832721670757 -0.99803186437041447 -0
    outer loop
      vertex -3.8850546177262482 -7.5987097670233945 10.515704666924382
      vertex -0.24654451285805346 -7.8273264371596953 12.017948190770724
      vertex -3.8850546177262482 -7.5987097670233945 12.017948190770724
    endloop
  endfacet
  facet normal 0.5358958998256439 -0.84428406626565178 0
    outer loop
      vertex -0.24654451285805346 -7.8273264371596953 10.515704666924382
      vertex 2.8314495033196185 -5.8736186285387104 10.515704666924382
      vertex 2.8314495033196185 -5.8736186285387104 12.017948190770724
    endloop
  endfacet
  facet normal 0.5358958998256439 -0.84428406626565189 -0
    outer loop
      vertex -0.24654451285805346 -7.8273264371596953 10.515704666924382
      vertex 2.8314495033196185 -5.8736186285387104 12.017948190770724
      vertex -0.24654451285805346 -7.8273264371596953 12.017948190770724
    endloop
  endfacet
  facet normal 0.92980661307127155 -0.36804845100737849 -0
    outer loop
      vertex 2.8314495033196185 -5.8736186285387104 10.515704666924382
      vertex 4.1732383337956911 -2.483836319967581 10.515704666924382
      vertex 4.1732383337956911 -2.483836319967581 12.017948190770724
    endloop
  endfacet
  facet normal 0.92980661307127155 -0.36804845100737849 0
    outer loop
      vertex 2.8314495033196185 -5.8736186285387104 10.515704666924382
      vertex 4.1732383337956911 -2.483836319967581 12.017948190770724
      vertex 2.8314495033196185 -5.8736186285387104 12.017948190770724
    endloop
  endfacet
  facet normal 0.96856280308809584 0.24876916302896246 0
    outer loop
      vertex 4.1732383337956911 -2.483836319967581 10.515704666924382
      vertex 3.2663042510532772 1.0472388611426071 10.515704666924382
      vertex 3.2663042510532772 1.0472388611426071 12.017948190770724
    endloop
  endfacet
  facet normal 0.96856280308809584 0.24876916302896246 0
    outer loop
      vertex 4.1732383337956911 -2.483836319967581 10.515704666924382
      vertex 3.2663042510532772 1.0472388611426071 12.017948190770724
      vertex 4.1732383337956911 -2.483836319967581 12.017948190770724
    endloop
  endfacet
  facet normal 0.63736092256413879 0.7705654121411043 -0
    outer loop
      vertex 3.2663042510532772 1.0472388611426071 10.515704666924382
      vertex 0.45706524914426527 3.3708562124389507 10.515704666924382
      vertex 0.45706524914426527 3.3708562124389507 12.017948190770724
    endloop
  endfacet
  facet normal 0.63736092256413879 0.7705654121411043 0
    outer loop
      vertex 3.2663042510532772 1.0472388611426071 10.515704666924382
      vertex 0.45706524914426527 3.3708562124389507 12.017948190770724
      vertex 3.2663042510532772 1.0472388611426071 12.017948190770724
    endloop
  endfacet
  facet normal 0.062708832721670771 0.99803186437041447 0
    outer loop
      vertex 0.45706524914426527 3.3708562124389507 12.017948190770724
      vertex -3.181444855723929 3.5994728825752516 12.017948190770724
      vertex -3.181444855723929 3.5994728825752516 13.520191714617065
    endloop
  endfacet
  facet normal 0.062708832721670771 0.99803186437041447 0
    outer loop
      vertex 0.45706524914426527 3.3708562124389507 12.017948190770724
      vertex -3.181444855723929 3.5994728825752516 13.520191714617065
      vertex 0.45706524914426527 3.3708562124389507 13.520191714617065
    endloop
  endfacet
  facet normal -0.53589589982564401 0.84428406626565167 -0
    outer loop
      vertex -3.181444855723929 3.5994728825752516 12.017948190770724
      vertex -6.259438871901601 1.6457650739542657 12.017948190770724
      vertex -6.259438871901601 1.6457650739542657 13.520191714617065
    endloop
  endfacet
  facet normal -0.53589589982564401 0.84428406626565167 0
    outer loop
      vertex -3.181444855723929 3.5994728825752516 12.017948190770724
      vertex -6.259438871901601 1.6457650739542657 13.520191714617065
      vertex -3.181444855723929 3.5994728825752516 13.520191714617065
    endloop
  endfacet
  facet normal -0.92980661307127144 0.36804845100737854 0
    outer loop
      vertex -6.259438871901601 1.6457650739542657 12.017948190770724
      vertex -7.601227702377674 -1.7440172346168634 12.017948190770724
      vertex -7.601227702377674 -1.7440172346168634 13.520191714617065
    endloop
  endfacet
  facet normal -0.92980661307127144 0.36804845100737854 0
    outer loop
      vertex -6.259438871901601 1.6457650739542657 12.017948190770724
      vertex -7.601227702377674 -1.7440172346168634 13.520191714617065
      vertex -6.259438871901601 1.6457650739542657 13.520191714617065
    endloop
  endfacet
  facet normal -0.96856280308809584 -0.24876916302896285 -0
    outer loop
      vertex -7.601227702377674 -1.7440172346168634 12.017948190770724
      vertex -6.6942936196352587 -5.2750924157270509 12.017948190770724
      vertex -6.6942936196352587 -5.2750924157270509 13.520191714617065
    endloop
  endfacet
  facet normal -0.96856280308809584 -0.24876916302896285 -0
    outer loop
      vertex -7.601227702377674 -1.7440172346168634 12.017948190770724
      vertex -6.6942936196352587 -5.2750924157270509 13.520191714617065
      vertex -7.601227702377674 -1.7440172346168634 13.520191714617065
    endloop
  endfacet
  facet normal -0.6373609225641389 -0.77056541214110419 -0
    outer loop
      vertex -6.6942936196352587 -5.2750924157270509 12.017948190770724
      vertex -3.8850546177262482 -7.5987097670233945 12.017948190770724
      vertex -3.8850546177262482 -7.5987097670233945 13.520191714617065
    endloop
  endfacet
  facet normal -0.6373609225641389 -0.77056541214110419 -0
    outer loop
      vertex -6.6942936196352587 -5.2750924157270509 12.017948190770724
      vertex -3.8850546177262482 -7.5987097670233945 13.520191714617065
      vertex -6.6942936196352587 -5.2750924157270509 13.520191714617065
    endloop
  endfacet
  facet normal -0.062708832721670757 -0.99803186437041447 -0
    outer loop
      vertex -3.8850546177262482 -7.5987097670233945 12.017948190770724
      vertex -0.24654451285805346 -7.8273264371596953 12.017948190770724
      vertex -0.24654451285805346 -7.8273264371596953 13.520191714617065
    endloop
  endfacet
  facet normal -0.062708832721670757 -0.99803186437041447 -0
    outer loop
      vertex -3.8850546177262482 -7.5987097670233945 12.017948190770724
      vertex -0.24654451285805346 -7.8273264371596953 13.520191714617065
      vertex -3.8850546177262482 -7.5987097670233945 13.520191714617065
    endloop
  endfacet
  facet normal 0.5358958998256439 -0.84428406626565189 0
    outer loop
      vertex -0.24654451285805346 -7.8273264371596953 12.017948190770724
      vertex 2.8314495033196185 -5.8736186285387104 12.017948190770724
      vertex 2.8314495033196185 -5.8736186285387104 13.520191714617065
    endloop
  endfacet
  facet normal 0.5358958998256439 -0.84428406626565189 -0
    outer loop
      vertex -0.24654451285805346 -7.8273264371596953 12.017948190770724
      vertex 2.8314495033196185 -5.8736186285387104 13.520191714617065
      vertex -0.24654451285805346 -7.8273264371596953 13.520191714617065
    endloop
  endfacet
  facet normal 0.92980661307127155 -0.36804845100737843 0
    outer loop
      vertex 2.8314495033196185 -5.8736186285387104 12.017948190770724
      vertex 4.1732383337956911 -2.483836319967581 12.017948190770724
      vertex 4.1732383337956911 -2.483836319967581 13.520191714617065
    endloop
  endfacet
  facet normal 0.92980661307127155 -0.36804845100737843 0
    outer loop
      vertex 2.8314495033196185 -5.8736186285387104 12.017948190770724
      vertex 4.1732383337956911 -2.483836319967581 13.520191714617065
      vertex 2.8314495033196185 -5.8736186285387104 13.520191714617065
    endloop
  endfacet
  facet normal 0.96856280308809584 0.24876916302896246 0
    outer loop
      vertex 4.1732383337956911 -2.483836319967581 12.017948190770724
      vertex 3.2663042510532772 1.0472388611426071 12.017948190770724
      vertex 3.2663042510532772 1.0472388611426071 13.520191714617065
    endloop
  endfacet
  facet normal 0.96856280308809584 0.24876916302896246 0
    outer loop
      vertex 4.1732383337956911 -2.483836319967581 12.017948190770724
      vertex 3.2663042510532772 1.0472388611426071 13.520191714617065
      vertex 4.1732383337956911 -2.483836319967581 13.520191714617065
    endloop
  endfacet
  facet normal 0.63736092256413879 0.7705654121411043 -0
    outer loop
      vertex 3.2663042510532772 1.0472388611426071 12.017948190770724
      vertex 0.45706524914426527 3.3708562124389507 12.017948190770724
      vertex 0.45706524914426527 3.3708562124389507 13.520191714617065
    endloop
  endfacet
  facet normal 0.63736092256413879 0.7705654121411043 0
    outer loop
      vertex 3.2663042510532772 1.0472388611426071 12.017948190770724
      vertex 0.45706524914426527 3.3708562124389507 13.520191714617065
      vertex 3.2663042510532772 1.0472388611426071 13.520191714617065
    endloop
  endfacet
  facet normal 0.062708832721670771 0.99803186437041447 0
    outer loop
      vertex 0.45706524914426527 3.3708562124389507 13.520191714617065
      vertex -3.181444855723929 3.5994728825752516 13.520191714617065
      vertex -3.181444855723929 3.5994728825752516 15.022435238463405
    endloop
  endfacet
  facet normal 0.062708832721670771 0.99803186437041447 0
    outer loop
      vertex 0.45706524914426527 3.3708562124389507 13.520191714617065
      vertex -3.181444855723929 3.5994728825752516 15.022435238463405
      vertex 0.45706524914426527 3.3708562124389507 15.022435238463405
    endloop
  endfacet
  facet normal -0.53589589982564401 0.84428406626565167 -0
    outer loop
      vertex -3.181444855723929 3.5994728825752516 13.520191714617065
      vertex -6.259438871901601 1.6457650739542657 13.520191714617065
      vertex -6.259438871901601 1.6457650739542657 15.022435238463405
    endloop
  endfacet
  facet normal -0.53589589982564401 0.84428406626565167 0
    outer loop
      vertex -3.181444855723929 3.5994728825752516 13.520191714617065
      vertex -6.259438871901601 1.6457650739542657 15.022435238463405
      vertex -3.181444855723929 3.5994728825752516 15.022435238463405
    endloop
  endfacet
  facet normal -0.92980661307127144 0.36804845100737854 0
    outer loop
      vertex -6.259438871901601 1.6457650739542657 13.520191714617065
      vertex -7.601227702377674 -1.7440172346168634 13.520191714617065
      vertex -7.601227702377674 -1.7440172346168634 15.022435238463405
    endloop
  endfacet
  facet normal -0.92980661307127144 0.36804845100737854 0
    outer loop
      vertex -6.259438871901601 1.6457650739542657 13.520191714617065
      vertex -7.601227702377674 -1.7440172346168634 15.022435238463405
      vertex -6.259438871901601 1.6457650739542657 15.022435238463405
    endloop
  endfacet
  facet normal -0.96856280308809584 -0.24876916302896285 -0
    outer loop
      vertex -7.601227702377674 -1.7440172346168634 13.520191714617065
      vertex -6.6942936196352587 -5.2750924157270509 13.520191714617065
      vertex -6.6942936196352587 -5.2750924157270509 15.022435238463405
    endloop
  endfacet
  facet normal -0.96856280308809584 -0.24876916302896285 -0
    outer loop
      vertex -7.601227702377674 -1.7440172346168634 13.520191714617065
      vertex -6.6942936196352587 -5.2750924157270509 15.022435238463405
      vertex -7.601227702377674 -1.7440172346168634 15.022435238463405
    endloop
  endfacet
  facet normal -0.6373609225641389 -0.77056541214110419 -0
    outer loop
      vertex -6.6942936196352587 -5.2750924157270509 13.520191714617065
      vertex -3.8850546177262482 -7.5987097670233945 13.520191714617065
      vertex -3.8850546177262482 -7.5987097670233945 15.022435238463405
    endloop
  endfacet
  facet normal -0.6373609225641389 -0.77056541214110419 -0
    outer loop
      vertex -6.6942936196352587 -5.2750924157270509 13.520191714617065
      vertex -3.8850546177262482 -7.5987097670233945 15.022435238463405
      vertex -6.6942936196352587 -5.2750924157270509 15.022435238463405
    endloop
  endfacet
  facet normal -0.062708832721670757 -0.99803186437041447 -0
    outer loop
      vertex -3.8850546177262482 -7.5987097670233945 13.520191714617065
      vertex -0.24654451285805346 -7.8273264371596953 13.520191714617065
      vertex -0.24654451285805346 -7.8273264371596953 15.022435238463405
    endloop
  endfacet
  facet normal -0.062708832721670757 -0.99803186437041447 -0
    outer loop
      vertex -3.8850546177262482 -7.5987097670233945 13.520191714617065
      vertex -0.24654451285805346 -7.8273264371596953 15.022435238463405
      vertex -3.8850546177262482 -7.5987097670233945 15.022435238463405
    endloop
  endfacet
  facet normal 0.5358958998256439 -0.84428406626565189 0
    outer loop
      vertex -0.24654451285805346 -7.8273264371596953 13.520191714617065
      vertex 2.8314495033196185 -5.8736186285387104 13.520191714617065
      vertex 2.8314495033196185 -5.8736186285387104 15.022435238463405
    endloop
  endfacet
  facet normal 0.5358958998256439 -0.84428406626565189 -0
    outer loop
      vertex -0.24654451285805346 -7.8273264371596953 13.520191714617065
      vertex 2.8314495033196185 -5.8736186285387104 15.022435238463405
      vertex -0.24654451285805346 -7.8273264371596953 15.022435238463405
    endloop
  endfacet
  facet normal 0.92980661307127155 -0.36804845100737843 0
    outer loop
      vertex 2.8314495033196185 -5.8736186285387104 13.520191714617065
      vertex 4.1732383337956911 -2.483836319967581 13.520191714617065
      vertex 4.1732383337956911 -2.483836319967581 15.022435238463405
    endloop
  endfacet
  facet normal 0.92980661307127155 -0.36804845100737843 0
    outer loop
      vertex 2.8314495033196185 -5.8736186285387104 13.520191714617065
      vertex 4.1732383337956911 -2.483836319967581 15.022435238463405
      vertex 2.8314495033196185 -5.8736186285387104 15.022435238463405
    endloop
  endfacet
  facet normal 0.96856280308809584 0.24876916302896246 0
    outer loop
      vertex 4.1732383337956911 -2.483836319967581 13.520191714617065
      vertex 3.2663042510532772 1.0472388611426071 13.520191714617065
      vertex 3.2663042510532772 1.0472388611426071 15.022435238463405
    endloop
  endfacet
  facet normal 0.96856280308809584 0.24876916302896246 0
    outer loop
      vertex 4.1732383337956911 -2.483836319967581 13.520191714617065
      vertex 3.2663042510532772 1.0472388611426071 15.022435238463405
      vertex 4.1732383337956911 -2.483836319967581 15.022435238463405
    endloop
  endfacet
  facet normal 0.63736092256413879 0.7705654121411043 -0
    outer loop
      vertex 3.2663042510532772 1.0472388611426071 13.520191714617065
      vertex 0.45706524914426527 3.3708562124389507 13.520191714617065
      vertex 0.45706524914426527 3.3708562124389507 15.022435238463405
    endloop
  endfacet
  facet normal 0.63736092256413879 0.7705654121411043 0
    outer loop
      vertex 3.2663042510532772 1.0472388611426071 13.520191714617065
      vertex 0.45706524914426527 3.3708562124389507 15.022435238463405
      vertex 3.2663042510532772 1.0472388611426071 15.022435238463405
    endloop
  endfacet
  facet normal -0 0 -1
    outer loop
      vertex -1.7139947414398193 -2.113926887512207 0
      vertex -3.181444855723929 3.5994728825752516 0
      vertex 0.45706524914426527 3.3708562124389507 0
    endloop
  endfacet
  facet normal -0 -0 -1
    outer loop
      vertex -1.7139947414398193 -2.113926887512207 0
      vertex -6.259438871901601 1.6457650739542657 0
      vertex -3.181444855723929 3.5994728825752516 0
    endloop
  endfacet
  facet normal -0 -0 -1
    outer loop
      vertex -1.7139947414398193 -2.113926887512207 0
      vertex -7.601227702377674 -1.7440172346168634 0
      vertex -6.259438871901601 1.6457650739542657 0
    endloop
  endfacet
  facet normal 0 -0 -1
    outer loop
      vertex -1.7139947414398193 -2.113926887512207 0
      vertex -6.6942936196352587 -5.2750924157270509 0
      vertex -7.601227702377674 -1.7440172346168634 0
    endloop
  endfacet
  facet normal 0 -0 -1
    outer loop
      vertex -1.7139947414398193 -2.113926887512207 0
      vertex -3.8850546177262482 -7.5987097670233945 0
      vertex -6.6942936196352587 -5.2750924157270509 0
    endloop
  endfacet
  facet normal 0 0 -1
    outer loop
      vertex -1.7139947414398193 -2.113926887512207 0
      vertex -0.24654451285805346 -7.8273264371596953 0
      vertex -3.8850546177262482 -7.5987097670233945 0
    endloop
  endfacet
  facet normal -0 0 -1
    outer loop
      vertex -1.7139947414398193 -2.113926887512207 0
      vertex 2.8314495033196185 -5.8736186285387104 0
      vertex -0.24654451285805346 -7.8273264371596953 0
    endloop
  endfacet
  facet normal 0 0 -1
    outer loop
      vertex -1.7139947414398193 -2.113926887512207 0
      vertex 4.1732383337956911 -2.483836319967581 0
      vertex 2.8314495033196185 -5.8736186285387104 0
    endloop
  endfacet
  facet normal 0 0 -1
    outer loop
      vertex -1.7139947414398193 -2.113926887512207 0
      vertex 3.2663042510532772 1.0472388611426071 0
      vertex 4.1732383337956911 -2.483836319967581 0
    endloop
  endfacet
  facet normal -0 0 -1
    outer loop
      vertex -1.7139947414398193 -2.113926887512207 0
      vertex 0.45706524914426527 3.3708562124389507 0
      vertex 3.2663042510532772 1.0472388611426071 0
    endloop
  endfacet
  facet normal -5.6078865194970086e-10 -8.9251373296527107e-09 1
    outer loop
      vertex -1.7139947414398193 -2.113926887512207 15.022435188293457
      vertex 0.45706524914426527 3.3708562124389507 15.022435238463405
      vertex -3.181444855723929 3.5994728825752516 15.022435238463405
    endloop
  endfacet
  facet normal 4.7923765910739437e-09 -7.5502111449344089e-09 0.99999999999999989
    outer loop
      vertex -1.7139947414398193 -2.113926887512207 15.022435188293457
      vertex -3.181444855723929 3.5994728825752516 15.022435238463405
      vertex -6.259438871901601 1.6457650739542657 15.022435238463405
    endloop
  endfacet
  facet normal 8.3150169794741955e-09 -3.2913608877085382e-09 1
    outer loop
      vertex -1.7139947414398193 -2.113926887512207 15.022435188293457
      vertex -6.259438871901601 1.6457650739542657 15.022435238463405
      vertex -7.601227702377674 -1.7440172346168634 15.022435238463405
    endloop
  endfacet
  facet normal 8.6616035430622528e-09 2.2246774881569671e-09 1
    outer loop
      vertex -1.7139947414398193 -2.113926887512207 15.022435188293457
      vertex -7.601227702377674 -1.7440172346168634 15.022435238463405
      vertex -6.6942936196352587 -5.2750924157270509 15.022435238463405
    endloop
  endfacet
  facet normal 5.6997518854308357e-09 6.8909647661322841e-09 1
    outer loop
      vertex -1.7139947414398193 -2.113926887512207 15.022435188293457
      vertex -6.6942936196352587 -5.2750924157270509 15.022435238463405
      vertex -3.8850546177262482 -7.5987097670233945 15.022435238463405
    endloop
  endfacet
  facet normal 5.6078867465796379e-10 8.925137691062247e-09 1
    outer loop
      vertex -1.7139947414398193 -2.113926887512207 15.022435188293457
      vertex -3.8850546177262482 -7.5987097670233945 15.022435238463405
      vertex -0.24654451285805346 -7.8273264371596953 15.022435238463405
    endloop
  endfacet
  facet normal -4.7923766977358041e-09 7.5502113129762082e-09 1
    outer loop
      vertex -1.7139947414398193 -2.113926887512207 15.022435188293457
      vertex -0.24654451285805346 -7.8273264371596953 15.022435238463405
      vertex 2.8314495033196185 -5.8736186285387104 15.022435238463405
    endloop
  endfacet
  facet normal -8.3150169422099769e-09 3.2913608729581187e-09 1
    outer loop
      vertex -1.7139947414398193 -2.113926887512207 15.022435188293457
      vertex 2.8314495033196185 -5.8736186285387104 15.022435238463405
      vertex 4.1732383337956911 -2.483836319967581 15.022435238463405
    endloop
  endfacet
  facet normal -8.6616032874767016e-09 -2.2246774225114476e-09 1
    outer loop
      vertex -1.7139947414398193 -2.113926887512207 15.022435188293457
      vertex 4.1732383337956911 -2.483836319967581 15.022435238463405
      vertex 3.2663042510532772 1.0472388611426071 15.022435238463405
    endloop
  endfacet
  facet normal -5.6997516388413567e-09 -6.890964468007131e-09 1
    outer loop
      vertex -1.7139947414398193 -2.113926887512207 15.022435188293457
      vertex 3.2663042510532772 1.0472388611426071 15.022435238463405
      vertex 0.45706524914426527 3.3708562124389507 15.022435238463405
    endloop
  endfacet
endsolid OBJECT
